<svg width="36" height="36" viewBox="0 0 36 36" fill="none" xmlns="http://www.w3.org/2000/svg">
<circle r="17.5" transform="matrix(-1 0 0 1 18 18)" stroke="#142432"/>
<path d="M15.293 11.636C15.1056 11.8236 15.0002 12.0779 15.0002 12.343C15.0002 12.6082 15.1056 12.8625 15.293 13.05L20.243 18L15.293 22.95C15.1109 23.1387 15.0101 23.3913 15.0124 23.6535C15.0146 23.9156 15.1198 24.1665 15.3052 24.3519C15.4906 24.5373 15.7414 24.6424 16.0036 24.6447C16.2658 24.647 16.5184 24.5462 16.707 24.364L22.364 18.707C22.5515 18.5195 22.6568 18.2652 22.6568 18C22.6568 17.7349 22.5515 17.4806 22.364 17.293L16.707 11.636C16.5195 11.4486 16.2652 11.3433 16 11.3433C15.7349 11.3433 15.4806 11.4486 15.293 11.636Z" fill="#142432"/>
</svg>
