<svg width="36" height="36" viewBox="0 0 36 36" fill="none" xmlns="http://www.w3.org/2000/svg">
<circle r="17.5" transform="matrix(1 0 0 -1 18 18)" stroke="#142432"/>
<path d="M20.707 24.364C20.8944 24.1764 20.9998 23.9221 20.9998 23.657C20.9998 23.3918 20.8944 23.1375 20.707 22.95L15.757 18L20.707 13.05C20.8891 12.8613 20.9899 12.6087 20.9876 12.3465C20.9854 12.0844 20.8802 11.8335 20.6948 11.6481C20.5094 11.4627 20.2586 11.3576 19.9964 11.3553C19.7342 11.353 19.4816 11.4538 19.293 11.636L13.636 17.293C13.4485 17.4805 13.3432 17.7348 13.3432 18C13.3432 18.2651 13.4485 18.5194 13.636 18.707L19.293 24.364C19.4805 24.5514 19.7348 24.6567 20 24.6567C20.2651 24.6567 20.5194 24.5514 20.707 24.364Z" fill="#142432"/>
</svg>
