<svg width="129" height="26" viewBox="0 0 129 26" fill="none" xmlns="http://www.w3.org/2000/svg">
<path d="M13.4596 11.3605L7.79555 9.94605C6.83555 9.72102 5.33155 9.33526 5.33155 7.50289C5.33155 5.38121 7.53956 4.70613 9.36355 4.70613C13.5876 4.70613 14.0036 7.18143 14.1316 8.21013H18.8036C18.7716 5.34907 16.8516 0.65564 9.74755 0.65564C2.19555 0.65564 0.819551 5.25262 0.819551 7.82436C0.819551 12.9678 4.43555 13.8037 8.21155 14.6716L10.7075 15.2503C13.1715 15.8289 14.8996 16.3111 14.8996 18.1435C14.8996 20.6188 12.3395 21.1653 10.0355 21.1653C5.81155 21.1653 5.13955 18.69 5.10755 17.4041H0.435547C0.435547 20.2973 1.87555 25.2158 10.3555 25.2158C12.4035 25.2158 19.5075 24.605 19.5075 17.5648C19.5396 13.45 16.6276 12.1642 13.4596 11.3605Z" fill="#1E2323"/>
<path d="M27.5401 1.10568H22.9961V5.31691H27.5401V1.10568Z" fill="#58C3BA"/>
<path d="M27.5401 7.3743H22.9961V24.6692H27.5401V7.3743Z" fill="#1E2323"/>
<path d="M43.0592 0.88068V3.74175V9.6246H42.9952C42.5152 8.88523 41.7472 7.92082 40.4352 7.37433C39.7632 7.08501 38.9632 6.92428 38.0032 6.92428C37.1392 6.92428 36.3072 7.08501 35.5392 7.37433C32.8832 8.40303 30.8672 11.1998 30.8672 15.8289C30.8672 20.5866 33.0112 25.1193 38.0992 25.1193C39.9872 25.1193 41.9712 24.4443 43.0912 22.4833H43.1552V24.6693H47.6032V4.86689V3.7096V0.848541H43.0592V0.88068ZM39.2192 21.3903C36.3072 21.3903 35.5072 18.2078 35.5072 16.1504C35.5072 13.4179 36.4672 10.8462 39.3472 10.8462C42.4512 10.8462 43.2192 13.643 43.2192 16.4076C43.2512 18.9793 42.0992 21.3903 39.2192 21.3903Z" fill="#1E2323"/>
<path d="M66.6118 16.4397C66.6118 10.6855 64.1158 8.27445 61.4598 7.37434C60.4678 7.05287 59.4438 6.92429 58.5158 6.92429C57.3318 6.92429 56.3078 7.08502 55.4118 7.37434C50.7718 8.91738 50.2598 13.9001 50.2598 15.6682C50.2598 22.7726 53.9718 25.1194 58.8358 25.1194C61.7798 25.1194 65.2038 23.7692 66.4198 19.5901H61.7478C61.3958 20.8117 60.0838 21.4868 58.8358 21.4868C55.1878 21.4868 54.9318 18.5614 54.8038 17.2755H66.6118V16.4397ZM54.9318 14.2859C55.1878 12.0035 56.3398 10.6533 58.4518 10.6533C59.8918 10.6533 61.6838 11.4891 61.9398 14.2859H54.9318Z" fill="#1E2323"/>
<path d="M79.4421 14.0608L85.5221 7.3743H79.9541L74.2581 13.9322V1.10568H69.7461V24.6693H74.2581V19.2043L76.1461 17.2434L80.2421 24.6693H85.6821L79.4421 14.0608Z" fill="#1E2323"/>
<path d="M92.2764 1.10568H87.7324V5.31691H92.2764V1.10568Z" fill="#58C3BA"/>
<path d="M92.2764 7.3743H87.7324V24.6693H92.2764V7.3743Z" fill="#1E2323"/>
<path d="M103.764 21.3903C100.34 21.3903 100.276 17.6613 100.276 15.7646C100.276 13.6108 101.012 10.7497 103.86 10.7497H104.084C106.036 10.7497 106.676 12.4535 106.868 13.5465H111.475C111.059 8.14583 106.58 6.92426 103.86 6.92426C98.0355 6.92426 95.6035 10.9104 95.6035 16.504C95.6035 20.1366 97.1075 25.1193 103.571 25.1193C109.875 25.1193 111.284 20.1366 111.444 18.3685H106.835C106.835 19.1722 106.036 21.3903 103.764 21.3903Z" fill="#1E2323"/>
<path d="M112.596 24.6693H118.036L122.164 17.2434L124.02 19.2043V24.6693H128.564V1.33072H124.02V13.9322L118.324 7.3743H112.756L118.836 14.0608L112.596 24.6693Z" fill="#1E2323"/>
</svg>
